<svg width="135" height="27" viewBox="0 0 135 27" fill="none" xmlns="http://www.w3.org/2000/svg">
<path d="M50.802 17.21H45.33L44.322 20H42.594L47.13 7.526H49.02L53.538 20H51.81L50.802 17.21ZM50.334 15.878L48.066 9.542L45.798 15.878H50.334ZM54.9029 15.032C54.9029 14.024 55.1069 13.142 55.5149 12.386C55.9229 11.618 56.4809 11.024 57.1889 10.604C57.9089 10.184 58.7129 9.974 59.6009 9.974C60.3689 9.974 61.0829 10.154 61.7429 10.514C62.4029 10.862 62.9069 11.324 63.2549 11.9V6.68H64.9109V20H63.2549V18.146C62.9309 18.734 62.4509 19.22 61.8149 19.604C61.1789 19.976 60.4349 20.162 59.5829 20.162C58.7069 20.162 57.9089 19.946 57.1889 19.514C56.4809 19.082 55.9229 18.476 55.5149 17.696C55.1069 16.916 54.9029 16.028 54.9029 15.032ZM63.2549 15.05C63.2549 14.306 63.1049 13.658 62.8049 13.106C62.5049 12.554 62.0969 12.134 61.5809 11.846C61.0769 11.546 60.5189 11.396 59.9069 11.396C59.2949 11.396 58.7369 11.54 58.2329 11.828C57.7289 12.116 57.3269 12.536 57.0269 13.088C56.7269 13.64 56.5769 14.288 56.5769 15.032C56.5769 15.788 56.7269 16.448 57.0269 17.012C57.3269 17.564 57.7289 17.99 58.2329 18.29C58.7369 18.578 59.2949 18.722 59.9069 18.722C60.5189 18.722 61.0769 18.578 61.5809 18.29C62.0969 17.99 62.5049 17.564 62.8049 17.012C63.1049 16.448 63.2549 15.794 63.2549 15.05ZM67.067 15.032C67.067 14.024 67.271 13.142 67.679 12.386C68.087 11.618 68.645 11.024 69.353 10.604C70.073 10.184 70.877 9.974 71.765 9.974C72.533 9.974 73.247 10.154 73.907 10.514C74.567 10.862 75.071 11.324 75.419 11.9V6.68H77.075V20H75.419V18.146C75.095 18.734 74.615 19.22 73.979 19.604C73.343 19.976 72.599 20.162 71.747 20.162C70.871 20.162 70.073 19.946 69.353 19.514C68.645 19.082 68.087 18.476 67.679 17.696C67.271 16.916 67.067 16.028 67.067 15.032ZM75.419 15.05C75.419 14.306 75.269 13.658 74.969 13.106C74.669 12.554 74.261 12.134 73.745 11.846C73.241 11.546 72.683 11.396 72.071 11.396C71.459 11.396 70.901 11.54 70.397 11.828C69.893 12.116 69.491 12.536 69.191 13.088C68.891 13.64 68.741 14.288 68.741 15.032C68.741 15.788 68.891 16.448 69.191 17.012C69.491 17.564 69.893 17.99 70.397 18.29C70.901 18.578 71.459 18.722 72.071 18.722C72.683 18.722 73.241 18.578 73.745 18.29C74.261 17.99 74.669 17.564 74.969 17.012C75.269 16.448 75.419 15.794 75.419 15.05ZM86.6399 11.486V17.3C86.6399 17.78 86.7419 18.122 86.9459 18.326C87.1499 18.518 87.5039 18.614 88.0079 18.614H89.2139V20H87.7379C86.8259 20 86.1419 19.79 85.6859 19.37C85.2299 18.95 85.0019 18.26 85.0019 17.3V11.486H83.7239V10.136H85.0019V7.652H86.6399V10.136H89.2139V11.486H86.6399ZM95.5005 20.162C94.5765 20.162 93.7365 19.952 92.9805 19.532C92.2365 19.112 91.6485 18.518 91.2165 17.75C90.7965 16.97 90.5865 16.07 90.5865 15.05C90.5865 14.042 90.8025 13.154 91.2345 12.386C91.6785 11.606 92.2785 11.012 93.0345 10.604C93.7905 10.184 94.6365 9.974 95.5725 9.974C96.5085 9.974 97.3545 10.184 98.1105 10.604C98.8665 11.012 99.4605 11.6 99.8925 12.368C100.337 13.136 100.559 14.03 100.559 15.05C100.559 16.07 100.331 16.97 99.8745 17.75C99.4305 18.518 98.8245 19.112 98.0565 19.532C97.2885 19.952 96.4365 20.162 95.5005 20.162ZM95.5005 18.722C96.0885 18.722 96.6405 18.584 97.1565 18.308C97.6725 18.032 98.0865 17.618 98.3985 17.066C98.7225 16.514 98.8845 15.842 98.8845 15.05C98.8845 14.258 98.7285 13.586 98.4165 13.034C98.1045 12.482 97.6965 12.074 97.1925 11.81C96.6885 11.534 96.1425 11.396 95.5545 11.396C94.9545 11.396 94.4025 11.534 93.8985 11.81C93.4065 12.074 93.0105 12.482 92.7105 13.034C92.4105 13.586 92.2605 14.258 92.2605 15.05C92.2605 15.854 92.4045 16.532 92.6925 17.084C92.9925 17.636 93.3885 18.05 93.8805 18.326C94.3725 18.59 94.9125 18.722 95.5005 18.722ZM109.552 12.71V14.096H102.37V12.71H109.552ZM112.014 15.032C112.014 14.024 112.218 13.142 112.626 12.386C113.034 11.618 113.592 11.024 114.3 10.604C115.02 10.184 115.824 9.974 116.712 9.974C117.48 9.974 118.194 10.154 118.854 10.514C119.514 10.862 120.018 11.324 120.366 11.9V6.68H122.022V20H120.366V18.146C120.042 18.734 119.562 19.22 118.926 19.604C118.29 19.976 117.546 20.162 116.694 20.162C115.818 20.162 115.02 19.946 114.3 19.514C113.592 19.082 113.034 18.476 112.626 17.696C112.218 16.916 112.014 16.028 112.014 15.032ZM120.366 15.05C120.366 14.306 120.216 13.658 119.916 13.106C119.616 12.554 119.208 12.134 118.692 11.846C118.188 11.546 117.63 11.396 117.018 11.396C116.406 11.396 115.848 11.54 115.344 11.828C114.84 12.116 114.438 12.536 114.138 13.088C113.838 13.64 113.688 14.288 113.688 15.032C113.688 15.788 113.838 16.448 114.138 17.012C114.438 17.564 114.84 17.99 115.344 18.29C115.848 18.578 116.406 18.722 117.018 18.722C117.63 18.722 118.188 18.578 118.692 18.29C119.208 17.99 119.616 17.564 119.916 17.012C120.216 16.448 120.366 15.794 120.366 15.05ZM129.092 20.162C128.168 20.162 127.328 19.952 126.572 19.532C125.828 19.112 125.24 18.518 124.808 17.75C124.388 16.97 124.178 16.07 124.178 15.05C124.178 14.042 124.394 13.154 124.826 12.386C125.27 11.606 125.87 11.012 126.626 10.604C127.382 10.184 128.228 9.974 129.164 9.974C130.1 9.974 130.946 10.184 131.702 10.604C132.458 11.012 133.052 11.6 133.484 12.368C133.928 13.136 134.15 14.03 134.15 15.05C134.15 16.07 133.922 16.97 133.466 17.75C133.022 18.518 132.416 19.112 131.648 19.532C130.88 19.952 130.028 20.162 129.092 20.162ZM129.092 18.722C129.68 18.722 130.232 18.584 130.748 18.308C131.264 18.032 131.678 17.618 131.99 17.066C132.314 16.514 132.476 15.842 132.476 15.05C132.476 14.258 132.32 13.586 132.008 13.034C131.696 12.482 131.288 12.074 130.784 11.81C130.28 11.534 129.734 11.396 129.146 11.396C128.546 11.396 127.994 11.534 127.49 11.81C126.998 12.074 126.602 12.482 126.302 13.034C126.002 13.586 125.852 14.258 125.852 15.05C125.852 15.854 125.996 16.532 126.284 17.084C126.584 17.636 126.98 18.05 127.472 18.326C127.964 18.59 128.504 18.722 129.092 18.722Z" fill="#F25551"/>
<path d="M1 5C1 3.34315 2.34315 2 4 2H20C21.6569 2 23 3.34315 23 5V21C23 22.6569 21.6569 24 20 24H4C2.34315 24 1 22.6569 1 21V5Z" stroke="#F25551" stroke-width="2"/>
<path d="M17.3332 13.0001H6.6665M11.9998 7.66675V18.3334" stroke="#F25551" stroke-linecap="round"/>
</svg>
