<svg width="26" height="28" viewBox="0 0 26 28" fill="none" xmlns="http://www.w3.org/2000/svg">
<path d="M25 5.36353H1" stroke="#F25551" stroke-width="1.5" stroke-linecap="round" stroke-linejoin="round"/>
<path d="M9.72705 11.9092V20.6365" stroke="#F25551" stroke-width="1.5" stroke-linecap="round" stroke-linejoin="round"/>
<path d="M16.2729 11.9092V20.6365" stroke="#F25551" stroke-width="1.5" stroke-linecap="round" stroke-linejoin="round"/>
<path d="M22.818 5.36353V26.0908C22.818 26.3801 22.7031 26.6576 22.4985 26.8622C22.2939 27.0668 22.0164 27.1817 21.7271 27.1817H4.27255C3.98322 27.1817 3.70575 27.0668 3.50116 26.8622C3.29658 26.6576 3.18164 26.3801 3.18164 26.0908V5.36353" stroke="#F25551" stroke-width="1.5" stroke-linecap="round" stroke-linejoin="round"/>
<path d="M18.4545 5.36364V3.18182C18.4545 2.60316 18.2246 2.04821 17.8155 1.63904C17.4063 1.22987 16.8513 1 16.2727 1H9.72723C9.14857 1 8.59362 1.22987 8.18445 1.63904C7.77528 2.04821 7.54541 2.60316 7.54541 3.18182V5.36364" stroke="#F25551" stroke-width="1.5" stroke-linecap="round" stroke-linejoin="round"/>
</svg>
