<svg width="604" height="493" viewBox="0 0 604 493" fill="none" xmlns="http://www.w3.org/2000/svg">
<rect opacity="0.2" x="2" y="65.8868" width="600" height="424.852" fill="#241722" stroke="url(#paint0_linear_609_281)" stroke-width="4"/>
<path fill-rule="evenodd" clip-rule="evenodd" d="M294.348 27.9349C296.325 33.5487 298.3 39.1633 300.277 44.7773C301.545 48.3749 302.811 51.9718 304.077 55.5694C304.527 56.8449 304.777 58.1533 305.645 59.0388C307.693 61.1237 311.369 62.4506 313.83 63.9174C315.478 64.9002 317.128 65.883 318.776 66.8659C319.626 67.3731 321.511 68.0098 322.107 68.8514C322.763 69.7788 322.453 71.482 322.453 72.7643V83.836V104.698C313.936 103.555 305.419 102.413 296.903 101.271C308.25 115.319 319.596 129.367 330.942 143.415C333.739 146.877 337.134 150.209 339.217 154.237C343.652 162.812 347.986 171.447 352.369 180.052C356.45 188.06 360.53 196.07 364.61 204.079L327.902 202.402C318.398 201.968 308.635 202.621 299.478 199.73C291.929 197.348 284.381 194.966 276.832 192.584C275.828 192.267 272.701 191.908 271.989 191.041C271.323 190.229 271.337 187.16 271.148 186.121C267.585 166.471 263.05 144.817 252.651 127.903C245.195 115.778 235.135 105.162 225.922 94.5883C222.325 90.4616 218.667 86.3843 215.198 82.1321C214.31 81.0431 213.027 79.8073 212.439 78.4845C212.059 77.6298 211.529 76.0014 211.765 75.2427C211.867 74.9137 214.238 73.7334 214.577 73.499C216.98 71.8425 219.361 70.1509 221.747 68.4676C228.453 63.7371 235.152 58.9949 241.896 54.3275C247.154 50.6881 252.397 46.8294 257.942 43.7019C263.69 40.4601 270.021 38.1784 276.048 35.6171C282.137 33.0284 288.239 30.4694 294.348 27.9349Z" fill="#241722"/>
<path fill-rule="evenodd" clip-rule="evenodd" d="M87.653 327.848C90.5772 330.805 95.9024 334.773 100.112 332.969C102.226 332.063 104.032 330.073 105.958 328.79C108.22 327.282 110.347 325.773 112.265 323.764C116.092 319.753 118.989 313.894 123.509 310.754C125.028 309.698 127.993 309.472 129.047 307.787C129.519 307.031 129.563 305.884 129.476 305.01C129.287 303.128 128.34 303.239 129.923 301.858H127.464C127.417 300.838 128.365 300.754 129.071 300.886C128.743 299.27 128.408 292.949 131.152 295.814C133.531 298.297 132.341 302.417 134.026 305.106C135.315 307.166 138.738 305.498 139.199 303.233C139.407 302.215 138.362 300.625 138.238 299.627C137.964 297.414 138.885 295.501 140.223 293.825C143.157 295.923 141.494 300.265 143.166 303.021C144.679 305.516 148.049 304.352 150.353 303.913C153.115 303.387 156.238 303.919 158.881 303.22C162.871 302.163 161.381 297.136 161.775 293.891C162.199 290.416 165.473 285.592 164.489 282.086C163.432 278.321 157.256 277.507 154.304 276.594C147.557 274.505 137.933 274.104 132.917 268.257C128.927 273.032 125.718 278.498 121.534 283.095C117.014 288.059 112.186 292.642 107.847 297.806C103.331 303.181 98.6695 308.452 94.3177 313.983C92.4187 316.395 90.7515 318.995 88.7874 321.35C87.041 323.443 85.2002 325.369 87.653 327.848ZM288.197 234.997C286.124 233.814 285.86 234.556 285.86 236.992C286.457 235.822 287.049 235.509 288.197 234.997ZM305.775 282.361V278.067C303.777 278.01 305.006 281.684 305.775 282.361ZM306.264 288.757C306.264 286.855 306.312 285.044 305.801 283.195C305.533 285.21 305.02 286.955 306.264 288.757ZM297.67 419.407C295.835 419.591 293.006 418.234 291.462 419.78C289.876 421.368 290.003 425.99 289.627 428.135C289.006 431.681 288.456 435.238 287.933 438.8C287.59 441.136 287.166 443.508 289.627 444.402C293.264 445.722 298.461 443.838 302.252 443.667C309.741 443.329 317.226 442.858 324.721 442.695C331.986 442.538 339.267 442.662 346.498 443.473C349.765 443.839 352.959 444.486 356.193 445.072C357.897 445.381 362.463 446.673 364.003 445.131C366.899 442.229 362.084 435.454 360.013 433.541C356.17 429.99 350.704 427.429 345.884 425.887C343.309 425.062 339.015 422.748 336.987 425.337C335.43 427.322 335.492 429.973 333.261 431.477C328.093 434.963 331.117 424.964 334.347 423.733C332.178 418.287 328.045 425.976 326.33 427.823C325.72 428.48 323.736 430.648 322.875 429.558C322.23 428.742 323.518 425.82 323.757 425.025C324.12 423.817 325.038 421.98 324.774 420.67C324.296 418.3 321.198 417.655 319.342 417.457C316.465 417.152 313.642 418.13 310.797 418.457C306.435 418.959 302.038 418.967 297.67 419.407ZM326.562 196.169C332.243 196.655 337.959 195.722 343.626 196.485C348.988 197.208 354.04 199.32 359.094 201.26C351.58 182.35 341.858 165.135 330.009 149.009C324.108 140.977 317.762 133 311.386 125.399C308.419 121.862 305.35 118.443 302.287 115.005C299.554 111.939 297.596 106.731 294.317 104.442C291.518 102.487 286.626 103.881 283.525 104.002C280.018 104.139 275.752 104.481 272.332 103.229C269.855 102.322 269.173 99.9002 272.275 99.82C275.933 99.7247 279.531 100.134 283.237 99.7658C292.839 98.8138 302.096 97.2491 311.776 98.1367C313.994 98.3395 316.913 99.3532 319.089 99.0489C320.654 98.8289 319.625 99.6733 320.713 98.3258C321.129 97.8104 321.631 96.5987 321.754 95.914C322.447 92.0683 320.479 86.5729 320.009 82.7011C319.573 79.1179 319.959 75.1797 319.144 71.6904C318.402 68.515 316.139 68.0915 313.353 67.7522C305.731 66.8235 297.952 66.3293 290.295 65.6296C272.822 64.0326 254.793 61.6235 237.438 65.5699C231.171 66.9949 223.53 69.1984 217.932 72.7267C216.181 73.8295 214.415 75.1283 215.052 77.4134C215.712 79.7855 218.951 82.2913 220.555 83.8539C232.409 95.4013 243.859 107.18 252.186 121.996C262.806 140.89 268.9 161.296 272.476 182.947C273.245 187.605 273.959 190.043 278.425 191.383C283.22 192.823 287.848 193.759 292.819 194.197C304.057 195.187 315.33 195.208 326.562 196.169ZM322.756 71.0455C323.617 77.9233 324.783 84.7861 324.898 91.718C324.941 94.3362 325.172 95.648 327.767 96.232C330.826 96.9201 333.936 97.4328 337.009 98.1469C351.84 101.596 366.391 105.831 380.901 110.599C395.002 115.234 408.872 120.447 423.291 123.88C429.493 125.357 436.751 126.353 442.4 129.623C448.477 133.141 447.677 138.91 448.223 145.247C448.951 153.712 451.291 161.91 452.114 170.372C452.507 174.416 452.866 178.484 452.806 182.553C452.756 186.021 452.293 189.857 454.466 192.776C458.825 186.522 460.892 178.657 461.751 170.992C462.168 167.267 462.003 163.511 462.122 159.768C462.219 156.754 462.156 151.961 463.986 149.444C467.963 143.975 473.134 165.893 473.626 168.234C474.453 172.173 475.136 176.146 475.96 180.086C476.325 181.832 476.794 188.181 478.975 188.814C483.494 190.126 482.502 176.499 482.573 174.425C482.716 170.237 482.813 166.045 482.722 161.853C482.656 158.828 482.11 155.545 482.434 152.519C483.229 145.087 487.124 152.917 488.219 155.683C490.985 162.666 492.236 170.141 494.717 177.236C495.13 178.416 496.099 182.39 497.636 182.464C499.345 182.545 499.332 178.442 499.429 177.243C499.996 170.294 501.912 163.394 501.334 156.372C500.75 149.283 498.434 141.994 495.157 135.828C488.227 122.791 475.714 115.305 463.729 108.486C450.012 100.684 435.531 94.5192 420.741 89.4974C402.953 83.4578 384.689 78.571 366.314 75.0933C356.966 73.3244 347.474 72.0592 338.03 71.0448C334.711 70.6884 331.391 70.48 328.114 69.8022C326.878 69.5458 322.416 68.3279 322.756 71.0455ZM313.201 48.7876C317.887 48.8274 322.675 46.3894 327.241 45.3819C332.676 44.1811 337.985 42.4437 343.411 41.1901C354.037 38.7358 364.668 36.3424 375.284 33.8339C379.893 32.7448 384.524 31.7969 389.114 30.6272C394.026 29.3757 399.332 27.9802 404.359 29.3284C411.979 31.3722 415.197 40.3169 417.995 47.2976C419.971 52.2282 421.52 57.7243 424.602 62.0148C425.699 63.5446 427.259 65.3691 429.248 64.8736C432.945 63.9538 432.358 58.7051 431.887 55.8039C431.205 51.5936 430.239 47.4326 429.465 43.2415C429.153 41.5499 426.738 30.4791 431.05 32.1931C434.25 33.4645 435.943 41.8385 437.154 44.8295C438.054 47.0522 439.007 49.2605 440.017 51.4284C441.365 54.32 445.21 63.9819 449.467 62.7359C455.56 60.9525 449.716 43.7665 448.678 40.1442C448.108 38.1559 441.916 23.077 447.142 24.3093C449.368 24.835 451.537 29.2715 452.672 31.1104C454.685 34.3719 456.691 37.657 458.586 40.9989C460.534 44.4361 461.53 48.3483 463.463 51.7354C464.479 53.5181 466.555 55.8937 468.581 54.2433C471.739 51.6724 469.867 42.7295 469.314 39.3478C468.285 33.0608 465.729 26.6156 462.221 21.4759C456.951 13.753 447.006 11.2575 438.644 9.7572C427.85 7.82031 416.905 8.35011 406.066 9.49607C393.875 10.7853 381.87 12.1656 369.854 14.8016C357.744 17.4582 345.628 20.0935 333.704 23.6068C328.087 25.262 322.389 26.7294 316.852 28.6725C310.965 30.7375 305.22 33.3075 299.169 34.7955C301.298 40.4944 303.427 46.1934 305.555 51.8931C307.592 49.7307 310.373 48.7629 313.201 48.7876ZM208.878 64.4918C207.012 63.3966 204.95 62.8798 204.269 60.459C203.667 58.3199 204.696 55.8964 205.188 53.843C206.563 48.094 206.926 42.1387 205.708 36.3218C204.544 38.2279 200.188 45.5594 197.538 41.1209C195.94 38.4438 200.223 34.5926 201.473 32.7105C198.73 30.8945 194.812 26.02 191.652 28.9596C189.609 30.8602 188.744 32.69 185.992 33.6139C182.65 34.7358 179.505 34.4788 176.092 34.169C173.704 33.9524 173.128 33.6104 172.195 35.5844C171.462 37.1361 171.084 39.0565 170.655 40.7227C169.812 44.0077 167.86 50.4805 170.172 53.5579C172.197 56.2535 180.058 53.9424 181.149 57.4221C181.745 59.3199 178.904 59.3878 177.818 60.3267C176.473 61.4891 175.361 63.339 174.63 64.9915C174.089 66.2135 173.267 68.2327 174.188 69.4821C175.46 71.2106 177.819 69.8995 178.844 68.6432C180.206 66.9743 180.648 64.6926 181.784 62.875C183.87 59.5399 183.994 62.193 184.562 64.5878C185.152 67.0757 186.547 66.9044 188.683 67.2238C192.432 67.7851 196.221 68.5767 199.87 69.6548C201.741 70.2072 203.553 70.9111 205.334 71.7336C206.482 72.2627 208.472 73.8658 209.718 73.8809C212.025 73.909 213.625 69.7672 214.817 68.0394C212.839 66.8543 210.866 65.6583 208.878 64.4918ZM84.9421 318.1C90.7062 310.676 95.698 302.61 101.385 295.121C106.994 287.735 113.483 281.276 119.778 274.586C122.748 271.429 125.595 267.965 128.874 265.167C131.321 263.079 133.203 263.047 136.146 263.972C144.507 266.599 153.021 269.762 160.934 273.684C168.302 277.335 175.013 282.024 183.004 284.06C191.16 286.139 199.641 286.807 208 286.291C216.575 285.763 224.662 283.849 232.816 281.035C240.539 278.37 248.591 276.043 255.195 270.762C262.119 265.225 267.469 257.262 272.426 249.772C274.935 245.98 277.426 241.998 279.117 237.701C280.584 233.972 281.543 229.57 284.176 226.53C284.822 227.513 285.625 228.355 285.954 229.508C286.103 230.033 285.223 230.016 285.313 230.433C285.484 231.218 286.457 232.018 287.023 232.445C289.056 233.981 289.068 232.759 288.535 235.63C288.224 237.303 288.812 241.079 291.356 239.845C290.419 241.048 291.907 242.566 292.393 243.557C292.727 243.146 293.143 243.002 293.64 243.126C292.71 245.114 293.259 245.167 294.16 246.745C294.325 247.034 294.908 248.544 294.825 248.416C295.746 249.824 296.81 250.178 297.347 251.931C297.788 253.371 297.675 254.955 298.167 256.393C298.762 255.511 299.357 254.628 299.951 253.747C299.83 254.441 299.587 255.467 299.305 256.097C299.127 256.49 298.366 257.408 298.376 257.623C298.418 258.425 299.35 258.232 299.616 258.924C300.115 260.221 299.394 260.412 299.666 261.678C299.977 263.131 300.814 262.55 301.212 263.789C301.288 264.024 300.7 264.949 300.793 265.456C300.924 266.173 301.53 266.574 301.744 267.211C302.288 268.833 302.09 270.02 302.845 271.575C303.138 272.178 303.564 272.58 303.77 273.265C303.951 273.869 303.562 275.152 303.911 275.692C305.596 278.296 305.359 273.811 305.231 272.699C304.159 263.359 300.718 253.72 297.569 244.99C296.004 240.653 294.481 236.18 292.519 232.026C291.729 230.353 290.818 228.626 289.513 227.347C287.862 225.728 285.521 225.08 284.026 223.272C284.262 223.557 282.405 221.672 282.702 222.292C282.437 221.738 282.9 220.988 282.736 220.452C282.531 219.787 282.143 219.647 281.711 219.065C280.935 218.019 280.013 217.498 281.232 216.165C279.423 215.736 278.558 215.106 278.197 213.028C277.933 211.507 278.466 211.606 277.536 210.593C276.602 209.574 276.13 210.369 275.541 208.606C274.838 206.495 274.371 203.626 273.95 201.417C273.582 199.489 274.475 196.654 272.96 195.293C271.042 193.569 269.326 194.299 269.669 190.832C270.005 187.453 269.026 185.405 268.043 182.207C266.08 175.823 265.321 169.082 263.6 162.622C259.927 148.835 253.437 136.404 246.46 124.268C240.012 113.053 230.998 103.499 222.294 94.2978C219.911 91.7777 217.554 89.2212 215.414 86.4584C213.57 84.0794 212.729 80.8403 210.957 78.582C209.88 77.2105 207.877 76.6238 206.374 75.8966C203.867 74.6835 200.88 73.1009 198.051 73.3463C199.176 77.4127 199.542 82.1645 196.225 85.2137C192.2 88.9128 188.552 85.0698 184.862 82.9609C178.138 79.1166 168.52 82.6456 162.656 76.8836C161.259 75.5114 160.87 73.3189 159.418 72.0372C158.353 71.0976 156.837 70.859 155.638 70.1586C151.994 68.0305 150.225 64.1347 151.644 59.8312C152.941 55.8971 154.956 54.5325 150.47 52.5387C146.829 50.9212 145.445 48.484 147.093 44.1448C148.664 40.0078 151.543 39.5315 154.267 36.8242C156.905 34.2019 153.874 31.1501 151.898 29.1817C149.35 26.6423 148.862 24.3538 151.817 21.7131C154.911 18.9482 159.328 19.0449 162.935 20.4122C167.014 21.9577 169.701 24.5272 171.427 28.691C173.185 32.9299 177.542 31.7469 181.07 30.5655C184.445 29.436 185.323 26.9987 187.539 24.3744C190.003 21.4554 195.026 23.9515 197.932 25.2853C205.091 28.5683 212.205 33.7496 212.49 42.9276C212.659 48.4004 210.502 53.0521 209.38 58.189C208.354 62.8866 215.388 62.5165 216.606 67.0606C229.599 59.6804 244.068 57.4221 258.592 56.9197C274.029 56.3851 289.688 55.9567 304.993 58.5694C301.44 51.928 299.564 44.6451 296.473 37.8221C295.584 35.8578 295.2 36.0257 293.237 36.6193C289.465 37.7591 285.721 39.0346 281.957 40.2086C268.206 44.4978 254.725 49.6656 241.429 55.3255C240.137 55.8759 237.252 57.4036 236.119 55.7422C234.812 53.8266 237.836 51.4647 239.059 50.5011C244.413 46.2866 251.048 43.7288 257.044 40.772C270.153 34.3095 284.669 31.242 298.347 26.4422C327.876 16.0785 358.425 8.20755 389.112 3.00891C396.601 1.74026 404.169 1.55452 411.69 0.612802C418.353 -0.221312 425.027 -0.20212 431.688 0.659408C443.992 2.25156 458.256 5.6867 465.205 17.7714C471.478 28.6827 475.666 40.9502 474.065 53.893C473.584 57.7805 472.05 62.3843 467.579 61.3822C464.478 60.6873 462.831 57.86 461.392 55.1007C459.216 50.9322 457.067 46.7637 454.71 42.7069C453.835 48.7897 457.013 54.771 456.514 60.9676C456.174 65.1724 454.008 71.8158 448.921 70.6253C441.947 68.9941 439.078 57.3049 435.725 51.6971C435.555 56.0164 436.966 60.2733 436.534 64.6022C436.108 68.8783 432.994 72.9152 428.621 72.3292C424.496 71.7768 421.815 67.0346 420.063 63.4644C417.624 58.4961 415.873 53.1693 413.492 48.168C411.26 43.48 408.616 37.8989 403.288 37.0182C398.532 36.2314 393.082 38.0524 388.385 38.8036C375.355 40.8872 362.588 44.4347 349.7 47.301C335.882 50.3736 321.738 52.2399 308.346 57.198C313.055 64.0751 325.377 62.5892 332.392 63.3274C342.993 64.4432 353.73 65.2828 364.27 66.929C374.681 68.5548 384.873 71.4409 395.202 73.5362C405.477 75.6204 415.734 77.7081 425.677 81.2625C444.136 87.8621 462.903 96.2142 479.167 107.729C486.734 113.088 493.456 119.212 498.131 127.669C502.835 136.18 505.096 145.803 505.958 155.592C506.494 161.688 505.583 166.964 504.482 172.896C503.685 177.192 503.427 184.383 500.217 187.529C494.091 193.532 489.005 169.182 487.874 166.241C487.059 171.06 488.391 198.212 478.561 196.004C474.174 195.019 473.179 188.558 472.452 184.666C471.124 177.572 469.936 170.335 467.665 163.502C466.208 172.709 465.601 182.3 462.462 191.093C460.377 196.932 454.429 207.294 450.281 197.297C447.171 189.799 448.238 181.194 447.865 173.234C447.452 164.413 445.091 155.905 444.256 147.17C443.932 143.787 444.225 139.973 441.056 138.127C438.336 136.542 434.358 136.026 431.388 135.141C422.59 132.52 413.735 130.111 404.979 127.331C396.219 124.548 387.581 121.297 378.938 118.125C370.672 115.09 362.232 113.365 353.866 110.767C349.109 109.289 344.41 107.744 339.586 106.51C337.342 105.936 335.07 105.489 332.83 104.895C331.17 104.455 328.983 102.795 327.276 102.824C325.52 102.855 324.86 104.45 322.845 104.576C320.677 104.71 318.472 104.197 316.315 104.019C311.062 103.587 305.477 102.888 300.236 103.669C303.386 107.679 307.641 110.45 311.37 113.772C315.67 117.602 319.832 121.739 323.506 126.262C330.897 135.364 337.883 144.985 344.374 154.845C350.776 164.573 355.931 175.218 360.412 186.093C362.645 191.513 364.813 197.051 366.356 202.747C366.989 205.087 367.507 207.436 368.651 209.564C369.7 211.516 371.179 213.198 369.939 215.555C369.085 214.982 368.317 214.269 367.545 213.58C368.437 220.325 370.363 226.85 371.353 233.574C372.329 240.199 372.29 247.012 372.227 253.703C372.094 267.715 371.123 281.41 368.474 295.154C365.795 309.051 362.353 322.843 358.014 336.25C353.836 349.159 349.644 362.696 343.813 374.862C337.585 387.857 330.176 401.519 321.162 412.519C327.05 415.107 334.544 414.623 340.78 415.666C347.297 416.756 352.936 418.812 358.49 422.682C364.11 426.598 367.161 431.64 367.937 438.78C368.489 443.863 370.129 450.899 363.915 452.234C359.446 453.194 354.449 451.617 349.971 451.227C342.138 450.546 334.293 450.12 326.442 449.753C318.611 449.386 310.779 449.063 302.946 448.803C299.261 448.68 295.575 448.618 291.892 448.477C290.242 448.414 289.241 448.386 287.761 448.898C286.591 449.303 286.676 450.144 285.373 449.104C283.272 447.427 283.704 442.139 283.763 439.815C283.852 436.227 284.169 432.598 284.821 429.077C285.208 426.986 289.907 413.502 286.253 412.935C290.498 407.93 292.193 400.783 294.1 394.511C296.489 386.652 298.586 378.815 300.232 370.733C303.748 353.467 305.302 336.013 305.302 318.347C289.002 329.128 271.757 334.967 252.559 335.618C233.471 336.266 212.502 334.584 194.377 327.771C185.984 324.615 178.466 320.471 171.27 314.889C168.691 312.888 165.927 308.356 162.542 308.434C158.502 308.527 153.978 310.168 149.966 310.87C142.293 312.212 132.279 312.969 125.783 318.062C122.254 320.828 119.725 324.699 116.576 327.887C114.181 330.311 111.013 331.628 108.636 334.053C106.071 336.669 107.089 340.087 102.836 340.299C99.2003 340.479 95.2138 338.91 92.0782 337.067C85.8223 333.392 79.1601 325.546 84.9421 318.1Z" fill="#FEEDE1" fill-opacity="0.8"/>
<path fill-rule="evenodd" clip-rule="evenodd" d="M145.073 143.266C135.918 150.244 125.417 155.011 115.849 161.296C113.455 162.868 105.994 166.134 106.066 169.052C106.108 170.758 108.35 172.897 109.332 174.079C111.014 176.105 112.596 178.151 114.148 180.294C121.253 190.105 127.943 200.009 135.642 209.327C136.802 210.729 140.294 217.422 141.421 214.098C141.932 212.59 141.511 210.897 142.843 209.492C143.528 208.768 146.177 208.369 145.406 206.817C144.891 207.065 144.377 207.314 143.862 207.561C144.262 206.321 144.232 204.961 144.831 203.789C145.204 203.06 145.931 202.715 146.184 201.895C146.532 200.761 145.941 199.444 146.04 198.275C146.138 197.11 146.7 196.009 147.036 194.91C149.029 188.393 149.743 181.823 150.764 175.1C151.773 168.447 153.345 162.002 153.962 155.275C154.614 148.17 155.413 141.079 156.479 134.03C154.576 134.317 153.113 136.535 151.768 137.79C149.652 139.761 147.355 141.527 145.073 143.266ZM152.25 212.057C152.687 211.688 153.028 211.236 153.275 210.7C148.788 208.315 151.495 212.384 152.25 212.057ZM154.979 206.97C156.934 207.548 158.34 207.665 159.848 206.802C159.991 206.72 159.826 206.089 160.084 205.959C160.31 205.847 160.654 205.986 160.847 205.881C161.503 205.522 162.653 206.307 162.765 204.935C160.269 204.116 157.814 202.603 155.179 202.348C151.516 201.994 151.685 205.995 154.979 206.97ZM163.548 199.06C166.217 199.73 168.415 201.294 171.251 200.885C173.912 200.503 176.225 199.022 178.325 197.315C173.073 195.72 167.565 195.432 162.317 193.888C160.608 193.386 158.363 192.061 156.521 192.595C154.475 193.189 154.346 195.245 153.733 197.116C157.007 197.748 160.306 198.247 163.548 199.06ZM180.239 191.121C182.803 191.778 185.424 193.215 187.568 190.735C187.914 190.335 188.217 190.734 188.176 189.501C188.133 188.201 187.033 187.363 186.087 186.906C183.863 185.83 180.745 186.525 178.383 186.367C174.615 186.115 170.78 185.275 167.053 184.628C164.472 184.181 161.807 183.187 159.169 183.383C157.133 183.534 154.676 185.396 157.644 186.755C160.347 187.993 164.399 187.803 167.327 188.339C171.655 189.131 175.968 190.025 180.239 191.121ZM182.744 178.178C182.578 178.36 182.412 178.541 182.246 178.723C182.273 178.716 181.263 177.838 180.995 177.813C179.695 177.691 178.388 177.787 177.086 177.708C174.086 177.527 171.063 176.966 168.117 176.349C165.717 175.846 163.273 174.979 160.803 175.196C158.664 175.384 158.439 175.854 158.299 178.068C163.758 178.068 169.381 177.945 174.746 179.185C178.239 179.991 182.088 182.394 183.837 178.063C183.473 178.101 183.109 178.14 182.744 178.178ZM179.331 168.803C177.977 169.909 174.287 168.069 172.665 167.886C170.903 167.685 169.246 167.478 167.538 167.007C166.025 166.589 161.016 164.501 159.855 166.498C158.075 169.556 165.283 170.118 166.426 170.269C171.218 170.905 176.191 171.468 180.854 172.817C180.347 171.479 179.839 170.141 179.331 168.803ZM172.757 158.413C172.407 159.827 161.569 154.616 161.371 158.403C161.219 161.309 172.095 162.756 174.05 162.501C173.592 161.163 172.374 159.965 172.757 158.413ZM169.118 149.525C168.887 146.674 168.531 146.69 166.399 146.421C164.774 146.216 162.539 145.194 162.962 148.303C163.325 150.965 169.35 152.403 169.118 149.525ZM165.244 139.713C164.731 138.182 163.577 140.243 163.553 141.021C163.488 143.093 164.952 142.645 166.361 142.645C165.969 141.677 165.596 140.698 165.244 139.713ZM147.406 128.22C147.693 127.848 149.307 127.706 149.766 127.526C150.895 127.082 150.735 126.135 152.18 127.069C152.252 126.991 152.114 126.289 152.193 126.257C152.233 126.24 153.245 125.83 153.574 125.604C154.368 125.059 155.083 124.525 155.813 123.84C156.588 123.113 157.365 122.057 158.251 121.478C158.625 121.234 158.93 120.888 159.38 120.813C160.549 120.62 160.214 121.493 161.235 121.667C161.864 121.774 162.322 120.985 163.145 121.325C163.856 121.619 164.269 122.689 164.585 123.325C165.737 125.643 166.626 128.137 167.753 130.479C173.518 142.454 180.071 153.976 185.656 166.063C188.346 171.886 191.152 177.75 193.046 183.938C194.411 188.401 197.493 194.921 194.841 199.381C192.913 202.624 189.051 204.024 185.971 205.591C181.335 207.948 177.062 211.03 172.376 213.316C166.787 216.041 161.36 218.893 155.913 221.936C153.59 223.234 151.494 225.104 149.178 226.334C147.762 227.086 145.575 225.803 145.114 227.526C143.339 225.219 140.466 226.757 138.412 225.133C137.204 224.178 136.321 222.295 135.314 221.119C133.803 219.354 132.162 217.718 130.62 215.984C124.501 209.1 118.85 201.929 113.282 194.535C107.963 187.473 101.75 180.802 97.2579 173.072C95.4739 170.003 95.1507 166.785 96.3279 163.396C97.1876 160.923 99.2585 157.189 102.217 158.826C101.095 156.828 105.422 154.693 106.734 154.303C106.754 154.297 107.013 155.832 107.379 155.794C107.249 155.808 108.479 152.392 109.019 151.954C110.624 150.652 112.576 149.131 114.327 148.059C115.932 147.075 117.627 146.588 119.182 145.487C121.068 144.153 122.799 142.572 124.692 141.247C126.519 139.968 128.556 138.456 130.576 137.576C132.327 136.814 133.9 136.664 135.476 135.414C137.425 133.867 139.125 132.818 141.374 131.752C143.319 130.83 146.014 130.025 147.406 128.22Z" fill="#FEEDE1" fill-opacity="0.8"/>
<path fill-rule="evenodd" clip-rule="evenodd" d="M412.906 313.44C412.548 312.539 412.192 311.637 411.834 310.737C411.392 312.308 411.268 313.089 412.906 313.44ZM412.43 317.603C413.205 317.752 412.899 315.144 412.899 314.689C411.561 315.502 412.669 316.477 412.43 317.603ZM413.638 310.079C412.977 309.661 412.317 309.243 411.656 308.824C412.576 310.652 412.215 309.51 411.836 310.731C412.53 310.945 413.204 310.696 413.638 310.079ZM417.552 324.371C420.028 334.01 427.891 341.611 436.197 345.549C440.97 347.811 445.662 348.377 450.816 348.125C452.804 348.027 455.143 347.334 457.056 347.463C458.529 347.562 458.463 347.631 459.683 348.969C460.222 347.902 459.832 347.154 460.914 346.533C462.265 345.759 462.826 346.661 463.496 347.733C464.373 346.758 464.732 346.249 465.868 345.669C465.833 345.688 466.956 345.642 466.91 345.657C467.113 345.59 468.335 344.747 468.718 344.593C470.288 343.961 472.103 343.702 473.552 342.795C474.819 342.003 475.863 339.781 477.313 341.489C477.314 338.635 480.897 337.451 482.576 335.956C485.2 333.62 487.286 330.162 488.594 326.817C489.99 323.249 490.455 319.829 491.108 316.153C491.564 313.584 494.551 309.87 492.757 307.278C492.33 308.365 492.53 309.478 491.821 310.464C491.182 309.143 490.831 307.666 490.542 306.22C490.4 305.512 489.579 303.434 489.672 302.817C489.862 301.555 491.318 301.486 490.511 299.939C488.836 301.894 487.484 298.46 488.75 297.091C489.374 297.847 489.604 298.706 489.892 299.642C491.538 296.076 486.981 297.224 487.978 294.004C486.315 293.661 485.359 293.211 484.726 291.448C484.023 289.486 484.54 289.058 482.943 287.761C482.394 287.316 480.841 286.675 480.556 285.942C480.006 284.525 481.406 284.105 480.18 282.777C479.766 283.556 478.153 285.099 477.269 283.631C477.092 283.339 477.835 283.131 477.295 282.456C476.495 281.459 475.599 280.48 474.246 280.69C475.317 277.814 468.469 277.587 466.715 276.908C464.957 276.229 463.465 275.783 461.602 275.625C459.74 275.468 459.647 274.882 458.07 273.679C457.937 275.4 457.551 275.022 456.411 275.326C456.137 274.821 455.856 274.764 455.569 275.156C455.282 275.448 454.932 275.585 454.52 275.568C453.894 275.603 453.183 275.516 452.527 275.53C450.987 275.562 449.399 275.424 447.888 275.459C447.499 275.389 447.134 275.244 446.793 275.023C446.651 275.311 446.508 275.599 446.366 275.888C445.566 275.995 445.504 277.071 444.519 275.895C444.228 277.391 443.391 276.612 442.507 277.018C441.701 277.389 441.573 277.981 440.829 278.394C440.339 278.82 439.815 278.876 439.254 278.564C438.721 278.988 438.179 279.4 437.63 279.8C436.617 280.413 435.424 280.789 434.358 281.273C433.648 281.587 432.943 281.914 432.243 282.253C432.222 283.159 431.843 283.479 431.108 283.212C430.443 283.809 430.255 283.786 429.61 284.802C428.149 287.106 426.852 288.896 425.006 290.955C416.983 299.906 414.518 312.561 417.552 324.371ZM415.09 286.309C418.712 281.104 423.839 275.144 428.447 271.857C430.782 270.19 434.06 267.198 436.916 266.317C437.593 266.108 438.294 266.094 438.959 265.875C439.473 265.706 439.753 265.14 440.339 265.037C440.749 264.966 440.795 265.951 441.23 265.861C442.141 265.67 442.719 264.7 443.362 264.094C444.744 266.648 445.493 262.352 447.522 265.24C449.937 261.178 455.609 262.066 459.464 262.271C460.608 262.331 461.145 262.768 462.158 263.092C463.102 263.392 463.195 263.315 464.226 263.307C466.791 263.286 469.069 263.632 471.441 264.841C475.425 266.871 479.083 270.036 482.867 272.483C487.097 275.219 490.91 278.701 494.146 282.701C505.844 297.167 508.972 318.281 499.644 335.051C484.828 361.686 446.611 364.533 424.956 346.46C408.225 332.497 401.858 305.317 415.09 286.309Z" fill="#FEEDE1" fill-opacity="0.8"/>
<path fill-rule="evenodd" clip-rule="evenodd" d="M231.711 211.357C232.127 212.422 236.01 212.063 236.095 210.808C236.221 208.933 230.989 209.508 231.711 211.357ZM227.587 210.661C225.386 210.853 221.771 212.457 219.65 211.488C216.414 210.009 219.813 207.739 221.549 207.06C223.316 206.37 225.947 206.737 226.855 204.754C227.539 203.264 225.85 199.102 227.945 199.771C230.144 200.473 229.504 206.434 232.954 204.425C234.6 203.466 233.928 197.625 236.685 200.609C237.439 201.426 237.505 202.925 238.504 203.533C239.523 204.155 240.802 203.507 241.878 203.561C244.728 203.704 245.635 206.565 242.748 207.699C241.68 208.119 237.652 208.632 240.092 210.506C241.629 211.686 245.045 209.209 246.365 211.264C248.18 214.086 243.319 214.15 242.013 214.994C239.8 216.424 241.628 219.764 241.452 222.142C241.181 225.776 239.214 225.017 238.499 221.941C237.893 219.332 238.644 215.576 234.978 216.613C229.009 218.302 238.298 226.434 233.925 228.515C231.137 229.842 230.742 222.669 230.526 221.434C229.724 216.876 227.338 217.939 223.722 218.079C219.499 218.242 218.48 214.89 222.952 213.93C224.379 213.623 226.342 214.011 227.581 213.035C228.314 212.459 229.322 210.51 227.587 210.661Z" fill="#FEEDE1" fill-opacity="0.8"/>
<path fill-rule="evenodd" clip-rule="evenodd" d="M383.523 359.591C386.941 358.278 392.659 358.562 393.505 363.298C393.859 365.281 393.17 367.378 391.893 368.819C390.413 370.489 388.056 370.644 388.182 367.735C388.27 365.722 390.055 363.974 386.916 363.568C384.963 363.316 382.074 364.884 381.977 367.199C381.757 372.417 390.176 372.826 393.278 371.924C399.436 370.134 397.763 363.213 393.534 360.055C392.442 359.239 389.308 357.982 389.165 356.287C388.974 354.039 391.565 354.498 392.835 354.794C402.169 356.974 404.203 373.752 394.45 376.915C390.021 378.351 383.784 376.869 381.114 372.565C378.612 368.529 378.578 361.491 383.523 359.591Z" fill="#FEEDE1" fill-opacity="0.8"/>
<path fill-rule="evenodd" clip-rule="evenodd" d="M507.283 240.817C510.201 242.324 513.118 243.831 516.036 245.338C517 243.124 518.63 237.074 521.076 236.301C525.036 235.05 522.514 241.645 521.831 243.153C521.269 244.392 519.967 246.311 520.283 247.787C520.707 249.776 523.322 250.481 524.691 251.507C528.079 254.047 528.052 259.381 523.146 257.121C520.37 255.841 516.933 252.293 514.805 256.321C513.823 258.18 511.495 268.565 509.064 261.774C507.56 257.569 514.8 253.2 511.231 249.643C510.082 248.498 508.737 248.402 507.589 247.744C504.817 246.154 506.38 243.217 507.283 240.817Z" fill="#FEEDE1" fill-opacity="0.8"/>
<path fill-rule="evenodd" clip-rule="evenodd" d="M79.5211 90.3472C81.2604 89.6646 83.4123 88.3315 85.3458 88.7859C87.4007 89.2684 88.2279 91.4767 89.7219 92.8043C93.7837 96.4142 96.1496 91.034 98.3814 88.0854C100.489 85.3014 103.061 84.6256 106.035 86.3363C107.22 87.0183 112.212 90.143 111.341 92.145C110.715 93.5856 108.249 92.2923 107.408 91.9777C105.581 91.2958 103.886 90.6988 102.018 91.6933C98.5143 93.5575 97.6054 98.6698 93.3666 99.4669C88.9835 100.291 88.8398 95.8159 85.7118 94.1312C83.6148 93.0024 82.154 95.001 80.1311 94.6028C78.2033 94.2237 77.3116 91.2135 79.5211 90.3472Z" fill="#FEEDE1" fill-opacity="0.8"/>
<path fill-rule="evenodd" clip-rule="evenodd" d="M114.907 108.385C113.357 108.746 112.345 105.52 111.375 104.701C109.765 103.345 106.974 103.071 105.335 104.437C102.135 107.102 103.238 112.855 98.6803 114.354C94.607 115.695 92.6881 109.938 89.2593 108.505C87.2658 107.672 85.0774 107.126 85.8554 104.136C86.3926 102.068 87.9754 101.537 89.6962 102.331C92.6537 103.695 93.6578 109.252 97.1639 109.351C100.791 109.454 101.185 103.843 102.742 101.398C105.116 97.6734 109.997 96.7735 112.77 100.335C113.608 101.41 117.859 107.698 114.907 108.385Z" fill="#FEEDE1" fill-opacity="0.8"/>
<path fill-rule="evenodd" clip-rule="evenodd" d="M186.61 44.7739C184.454 46.3572 180.156 46.3024 178.17 44.3387C176.148 42.3408 178.847 42.0338 180.493 42.0948C181.76 42.1421 184.131 42.8158 183.409 40.4684C182.769 38.3855 179.247 39.4458 178.953 37.1593C181.604 36.6494 184.523 36.8331 186.483 39.0681C187.9 40.6836 188.629 43.2915 186.61 44.7739Z" fill="#FEEDE1" fill-opacity="0.8"/>
<defs>
<linearGradient id="paint0_linear_609_281" x1="302" y1="63.8868" x2="302" y2="492.739" gradientUnits="userSpaceOnUse">
<stop stop-color="#632329"/>
<stop offset="0.49648" stop-color="#F25551"/>
<stop offset="1" stop-color="#50F283" stop-opacity="0.8"/>
</linearGradient>
</defs>
</svg>
